<mxfile host="app.diagrams.net" modified="2023-08-12T02:27:59.458Z" agent="Mozilla/5.0 (Macintosh; Intel Mac OS X 10_15_7) AppleWebKit/605.1.15 (KHTML, like Gecko) Version/14.1.3 Safari/605.1.15" version="21.6.8" etag="flUEkLL1t45wKI_taLAW" type="github">
  <diagram name="Page-1" id="R0OeUspnFIncogWV6p_K">
    <mxGraphModel>
      <root>
        <mxCell id="0" />
        <mxCell id="1" parent="0" />
      </root>
    </mxGraphModel>
  </diagram>
</mxfile>
